<mxfile host="app.diagrams.net" modified="2024-04-26T20:28:46.931Z" agent="Mozilla/5.0 (Macintosh; Intel Mac OS X 10_15_7) AppleWebKit/537.36 (KHTML, like Gecko) Chrome/124.0.0.0 Safari/537.36" version="24.1.0" etag="Gaf7936A5q2a8M9Zby3w" type="github">
  <diagram name="Page-1" id="S1XU-4v1I7LBTx95V1RZ">
    <mxGraphModel>
      <root>
        <mxCell id="0" />
        <mxCell id="1" parent="0" />
      </root>
    </mxGraphModel>
  </diagram>
</mxfile>
